<svg width="68" height="21" viewBox="0 0 68 21" fill="none" xmlns="http://www.w3.org/2000/svg">
<path d="M27.555 16.06C27.305 16.06 27.04 16.04 26.76 16C26.48 15.95 26.21 15.855 25.95 15.715C25.7 15.565 25.495 15.34 25.335 15.04C25.175 14.74 25.095 14.335 25.095 13.825V7.255C25.095 6.815 25.16 6.445 25.29 6.145C25.43 5.845 25.61 5.61 25.83 5.44C26.05 5.26 26.295 5.135 26.565 5.065C26.845 4.985 27.12 4.945 27.39 4.945C28.04 4.955 28.635 4.97 29.175 4.99C29.725 5 30.235 5.015 30.705 5.035C31.175 5.055 31.625 5.075 32.055 5.095V6.34H27.795C27.425 6.34 27.135 6.435 26.925 6.625C26.715 6.815 26.61 7.115 26.61 7.525V9.82L31.38 9.91V11.08L26.61 11.185V13.45C26.61 13.79 26.665 14.045 26.775 14.215C26.895 14.385 27.045 14.5 27.225 14.56C27.415 14.62 27.615 14.65 27.825 14.65H32.055V15.895C31.595 15.925 31.11 15.955 30.6 15.985C30.09 16.005 29.575 16.02 29.055 16.03C28.545 16.05 28.045 16.06 27.555 16.06ZM36.1327 16.015C35.6427 16.015 35.2277 15.93 34.8877 15.76C34.5577 15.59 34.3077 15.32 34.1377 14.95C33.9777 14.57 33.8977 14.06 33.8977 13.42V4.555H35.3977V13.225C35.3977 13.645 35.4377 13.97 35.5177 14.2C35.6077 14.42 35.7277 14.575 35.8777 14.665C36.0377 14.755 36.2227 14.815 36.4327 14.845L37.1827 14.935V16.015H36.1327ZM41.5597 16.09C40.7097 16.09 40.0297 15.965 39.5197 15.715C39.0197 15.465 38.6597 15.045 38.4397 14.455C38.2297 13.855 38.1247 13.03 38.1247 11.98C38.1247 10.91 38.2297 10.08 38.4397 9.49C38.6597 8.89 39.0197 8.47 39.5197 8.23C40.0197 7.99 40.6947 7.87 41.5447 7.87C42.2847 7.87 42.8797 7.95 43.3297 8.11C43.7897 8.26 44.1247 8.535 44.3347 8.935C44.5547 9.325 44.6647 9.87 44.6647 10.57C44.6647 11.06 44.5647 11.45 44.3647 11.74C44.1747 12.03 43.8997 12.24 43.5397 12.37C43.1897 12.5 42.7697 12.565 42.2797 12.565H39.6247C39.6347 13.145 39.6997 13.61 39.8197 13.96C39.9497 14.3 40.1747 14.55 40.4947 14.71C40.8247 14.86 41.3047 14.935 41.9347 14.935H44.4397V15.835C44.0097 15.895 43.5697 15.95 43.1197 16C42.6697 16.06 42.1497 16.09 41.5597 16.09ZM39.6097 11.62H42.1447C42.5447 11.62 42.8397 11.545 43.0297 11.395C43.2197 11.245 43.3147 10.97 43.3147 10.57C43.3147 10.17 43.2547 9.855 43.1347 9.625C43.0247 9.395 42.8397 9.23 42.5797 9.13C42.3197 9.03 41.9747 8.98 41.5447 8.98C41.0547 8.98 40.6647 9.055 40.3747 9.205C40.0947 9.355 39.8947 9.62 39.7747 10C39.6647 10.38 39.6097 10.92 39.6097 11.62ZM49.4803 16.09C49.0103 16.09 48.5753 16.03 48.1753 15.91C47.7853 15.78 47.4403 15.565 47.1403 15.265C46.8503 14.965 46.6253 14.55 46.4653 14.02C46.3053 13.49 46.2253 12.82 46.2253 12.01C46.2253 11.18 46.3003 10.5 46.4503 9.97C46.6003 9.43 46.8153 9.01 47.0953 8.71C47.3853 8.4 47.7353 8.185 48.1453 8.065C48.5553 7.945 49.0153 7.885 49.5253 7.885C49.9453 7.885 50.3853 7.905 50.8453 7.945C51.3153 7.985 51.7703 8.05 52.2103 8.14V9.025H49.9453C49.4553 9.025 49.0453 9.105 48.7153 9.265C48.3853 9.415 48.1403 9.71 47.9803 10.15C47.8203 10.58 47.7403 11.205 47.7403 12.025C47.7403 12.815 47.8253 13.425 47.9953 13.855C48.1653 14.275 48.4103 14.56 48.7303 14.71C49.0603 14.86 49.4703 14.935 49.9603 14.935H52.3303V15.79C52.1003 15.85 51.8253 15.905 51.5053 15.955C51.1953 15.995 50.8653 16.025 50.5153 16.045C50.1753 16.075 49.8303 16.09 49.4803 16.09ZM55.4538 16.09C54.8638 16.09 54.3738 15.915 53.9838 15.565C53.6038 15.205 53.4138 14.71 53.4138 14.08V13.45C53.4138 12.83 53.6238 12.325 54.0438 11.935C54.4738 11.535 55.1188 11.335 55.9788 11.335H58.4838V10.495C58.4838 10.185 58.4288 9.925 58.3188 9.715C58.2188 9.495 58.0288 9.33 57.7488 9.22C57.4688 9.11 57.0538 9.055 56.5038 9.055H54.0438V8.17C54.4038 8.09 54.8238 8.02 55.3038 7.96C55.7938 7.9 56.3638 7.865 57.0138 7.855C57.6738 7.855 58.2238 7.94 58.6638 8.11C59.1138 8.27 59.4488 8.54 59.6688 8.92C59.8888 9.29 59.9988 9.785 59.9988 10.405V16H58.8138L58.5588 15.115C58.4988 15.155 58.3738 15.23 58.1838 15.34C57.9938 15.44 57.7488 15.55 57.4488 15.67C57.1588 15.79 56.8388 15.89 56.4888 15.97C56.1488 16.05 55.8038 16.09 55.4538 16.09ZM56.1438 14.995C56.2938 15.005 56.4688 14.99 56.6688 14.95C56.8788 14.91 57.0838 14.865 57.2838 14.815C57.4938 14.755 57.6838 14.695 57.8538 14.635C58.0338 14.575 58.1788 14.525 58.2888 14.485C58.4088 14.435 58.4738 14.405 58.4838 14.395V12.085L56.3838 12.175C55.8638 12.205 55.4888 12.335 55.2588 12.565C55.0388 12.795 54.9288 13.095 54.9288 13.465V13.825C54.9288 14.115 54.9888 14.35 55.1088 14.53C55.2288 14.7 55.3788 14.82 55.5588 14.89C55.7488 14.96 55.9438 14.995 56.1438 14.995ZM62.0373 16V7.975H63.1923L63.5373 9.325C63.8773 8.915 64.2573 8.57 64.6773 8.29C65.0973 8.01 65.5873 7.87 66.1473 7.87C66.2773 7.87 66.4023 7.88 66.5223 7.9C66.6423 7.91 66.7573 7.93 66.8673 7.96V9.505C66.7273 9.485 66.5823 9.47 66.4323 9.46C66.2823 9.44 66.1273 9.43 65.9673 9.43C65.6273 9.43 65.3223 9.47 65.0523 9.55C64.7823 9.63 64.5223 9.755 64.2723 9.925C64.0323 10.085 63.7873 10.285 63.5373 10.525V16H62.0373Z" fill="white"/>
<path d="M18.4592 12.0008C18.114 13.6864 17.2561 15.224 16.0029 16.4028C14.7497 17.5817 13.1626 18.3442 11.4592 18.5858V16.8983C12.7173 16.674 13.8846 16.0931 14.8224 15.2248C15.7601 14.3565 16.4289 13.2372 16.7492 12L18.4592 12.0008ZM3.83583 12.0008C4.15268 13.2238 4.81006 14.3317 5.73158 15.1958C6.6531 16.0599 7.80092 16.6448 9.04167 16.8825V18.5742C7.35493 18.3172 5.78756 17.5491 4.55093 16.3736C3.31431 15.198 2.46789 13.6716 2.12583 12H3.83583V12.0008ZM15.2925 9.5V11.1667H14.4592C13.604 11.1667 12.7815 11.4954 12.1618 12.0848C11.5422 12.6742 11.1728 13.4792 11.13 14.3333L11.1258 14.5V15.3333H9.45917V14.5C9.45917 13.6448 9.13047 12.8223 8.54106 12.2027C7.95166 11.583 7.14663 11.2136 6.2925 11.1708L6.12583 11.1667H5.2925V9.5H15.2925ZM10.2925 2C14.6133 2 18.1667 5.28917 18.5842 9.5H16.9075C16.7041 7.88908 15.9199 6.40773 14.702 5.3339C13.4841 4.26007 11.9162 3.66756 10.2925 3.66756C8.66879 3.66756 7.10089 4.26007 5.88298 5.3339C4.66507 6.40773 3.88086 7.88908 3.6775 9.5H2C2.41833 5.28917 5.97167 2 10.2925 2Z" fill="white"/>
</svg>
